<?xml version="1.0" standalone="no"?>
<!DOCTYPE svg PUBLIC "-//W3C//DTD SVG 20010904//EN"
 "http://www.w3.org/TR/2001/REC-SVG-20010904/DTD/svg10.dtd">
<svg version="1.0" xmlns="http://www.w3.org/2000/svg"
 width="512.000000pt" height="512.000000pt" viewBox="0 0 512.000000 512.000000"
 preserveAspectRatio="xMidYMid meet">
<metadata>
Created by potrace 1.14, written by Peter Selinger 2001-2017
</metadata>
<g transform="translate(0.000000,512.000000) scale(0.100000,-0.100000)"
fill="#000000" stroke="none">
<path d="M3303 3742 c-12 -2 -26 -9 -31 -15 -5 -7 -40 -120 -77 -252 -37 -132
-84 -303 -106 -379 -21 -77 -39 -149 -39 -161 0 -27 29 -55 56 -55 38 0 55 25
80 115 105 378 140 502 165 588 21 72 26 104 19 122 -11 28 -36 43 -67 37z"/>
<path d="M1808 3675 c-2 -2 -21 -5 -43 -8 -128 -15 -297 -95 -363 -171 -51
-60 -63 -96 -60 -188 1 -48 7 -100 13 -115 10 -24 9 -32 -12 -59 -12 -17 -25
-51 -29 -75 -7 -57 26 -124 77 -157 30 -19 39 -34 53 -83 20 -74 53 -127 116
-187 l49 -47 -9 -47 c-5 -26 -17 -62 -25 -79 -18 -34 -17 -35 -89 32 -36 34
-42 36 -93 32 -236 -19 -421 -173 -478 -400 -16 -64 -24 -110 -30 -163 -2 -19
-6 -55 -9 -80 -8 -67 -15 -183 -17 -287 -2 -56 -7 -94 -13 -96 -6 -2 -45 -2
-87 -2 -85 2 -106 -7 -115 -51 -4 -22 0 -34 16 -49 21 -19 49 -20 1900 -20
1832 0 1878 1 1899 19 24 22 27 53 5 81 -13 18 -28 20 -194 20 -99 1 -181 3
-182 6 -1 2 6 15 15 29 21 33 44 92 41 108 -1 6 -2 16 -3 21 0 5 -28 8 -61 7
l-60 -2 -1 465 c-1 256 -2 471 -3 476 -5 30 -20 55 -43 70 -24 16 -80 17 -677
17 -358 0 -690 -1 -738 -1 -82 -1 -90 -3 -120 -30 -31 -28 -32 -30 -33 -115 0
-47 -1 -86 -1 -86 -1 0 -22 9 -46 20 -91 40 -227 57 -251 31 -8 -9 -31 -31
-51 -49 l-36 -34 -19 44 c-10 23 -21 60 -24 80 -5 32 -2 39 21 54 63 41 134
146 156 230 8 31 21 49 45 66 45 30 80 99 77 153 -2 44 -27 92 -52 102 -17 6
-13 22 22 101 29 63 30 94 4 147 -23 49 -33 61 -92 108 -25 21 -51 51 -56 66
-23 65 -83 92 -214 96 -43 1 -79 1 -80 0z"/>
<path d="M2925 3610 c-16 -6 -215 -154 -326 -242 -43 -35 -43 -88 1 -115 10
-7 85 -64 168 -127 100 -78 158 -116 175 -116 52 0 75 57 40 98 -10 11 -70 59
-133 107 -63 48 -116 90 -118 94 -1 4 58 54 133 110 115 88 135 107 135 130 0
47 -36 76 -75 61z"/>
<path d="M3460 3607 c-69 -35 -53 -75 70 -167 55 -41 116 -87 135 -102 l36
-26 -118 -90 c-177 -135 -181 -141 -147 -190 30 -43 58 -30 239 108 94 72 174
139 179 150 6 13 5 29 -1 43 -9 20 -298 248 -349 275 -15 8 -27 8 -44 -1z"/>
</g>
</svg>
